<svg width="250" height="250" viewBox="0 0 250 250" fill="none" xmlns="http://www.w3.org/2000/svg">
<rect y="15.5" width="92.5" height="34.5" rx="8" fill="#F5F5F5"/>
<rect x="98.5" width="48.5" height="50" rx="8" fill="#007BFF"/>
<rect x="153" width="73" height="15.5" rx="7.75" fill="#FF7F63"/>
<rect x="197.5" y="21.5" width="28.5" height="28.5" rx="8" fill="#007BFF"/>
<rect x="153" y="21.5" width="38.5" height="28.5" rx="8" fill="#F5F5F5"/>
<rect y="56" width="50" height="106" rx="8" fill="#FF7F63"/>
<rect x="56" y="82" width="10" height="80" rx="5" fill="#F5F5F5"/>
<rect x="56" y="56" width="10" height="20" rx="5" fill="#007BFF"/>
<rect x="72" y="129.5" width="95.5" height="102" rx="8" fill="#007BFF"/>
<rect x="173.5" y="178" width="46.5" height="59.5" rx="8" fill="#F5F5F5"/>
<rect x="226" y="230" width="24" height="20" rx="8" fill="#20C997"/>
<rect x="226" y="178" width="24" height="46" rx="8" fill="#007BFF"/>
<rect x="232" y="21.5" width="18" height="103.5" rx="8" fill="#FF7F63"/>
<rect x="173.5" y="129.5" width="58.5" height="42.5" rx="8" fill="#F5F5F5"/>
<rect x="72" y="56" width="154" height="67.5" rx="8" fill="#20C997"/>
<rect x="18.5" y="168" width="47.5" height="63.5" rx="8" fill="#20C997"/>
<rect y="237.5" width="106" height="12.5" rx="6.25" fill="#FF7F63"/>
<rect x="112" y="237.5" width="55.5" height="12.5" rx="6.25" fill="#F5F5F5"/>
</svg>
