<svg width="100" height="100" viewBox="0 0 100 100" fill="none" xmlns="http://www.w3.org/2000/svg">
<path fill-rule="evenodd" clip-rule="evenodd" d="M41 0C47.5661 0 54.0679 1.29327 60.1342 3.80603C66.2005 6.31876 71.7124 10.0017 76.3553 14.6447C80.9983 19.2876 84.6812 24.7996 87.194 30.8658C89.7067 36.9321 91 43.4339 91 50C91 56.5661 89.7067 63.0679 87.194 69.1342C84.6812 75.2005 80.9983 80.7124 76.3553 85.3553C71.7124 89.9983 66.2005 93.6812 60.1342 96.194C54.0679 98.7067 47.5661 100 41 100V71.3333H30.3333V60.6667V50H19.6667V39.3333H30.3333H41V50V60.6667H51.6667H62.3333V71.3333H73V60.6667H62.3333V50H51.6667V39.3333V28.6667H62.3333V18H51.6667V28.6667H41V0ZM19.6667 39.3333H9V28.6667H19.6667V39.3333ZM30.3333 71.3333V82H19.6667V71.3333H30.3333Z" fill="black"/>
</svg>
